<?xml version="1.0" encoding="utf-8"?>
<!-- Generator: Adobe Illustrator 23.0.1, SVG Export Plug-In . SVG Version: 6.00 Build 0)  -->
<svg version="1.1" id="Layer_1" xmlns="http://www.w3.org/2000/svg" xmlns:xlink="http://www.w3.org/1999/xlink" x="0px" y="0px"
	 viewBox="0 0 512 455" style="enable-background:new 0 0 512 455;" xml:space="preserve">
<g>
	<g>
		<path d="M125.1,274.3l109.2,97.5c12.4,11.1,31,11.1,43.4,0l109.2-97.5c5.4-4.8,5.8-13,1-18.4c-4.8-5.4-13-5.8-18.4-1L269,344.7V92
			c0-7.2-5.8-13-13-13c-7.2,0-13,5.8-13,13v252.6l-100.5-89.8c-2.5-2.2-5.6-3.3-8.7-3.3c-3.6,0-7.1,1.5-9.7,4.4
			C119.3,261.3,119.7,269.5,125.1,274.3z"/>
	</g>
</g>
</svg>
