<?xml version="1.0" encoding="utf-8"?>
<!-- Generator: Adobe Illustrator 23.0.1, SVG Export Plug-In . SVG Version: 6.00 Build 0)  -->
<svg version="1.1" id="Layer_1" xmlns="http://www.w3.org/2000/svg" xmlns:xlink="http://www.w3.org/1999/xlink" x="0px" y="0px"
	 viewBox="0 0 413.9 350.6" style="enable-background:new 0 0 413.9 350.6;" xml:space="preserve">
<g>
	<g>
		<path d="M401.7,26.8l-14.5-14.5c-16.3-16.3-42.8-16.3-59.1,0L212.6,127.7H12.4C5.5,127.7,0,133.2,0,140s5.5,12.4,12.4,12.4h175.5
			l-74.4,74.4H12.4c-6.8,0-12.4,5.5-12.4,12.4s5.5,12.4,12.4,12.4h76.4l-0.2,0.2c-1.5,1.5-2.6,3.4-3.2,5.4l-19.1,68.7H12.4
			c-6.8,0-12.4,5.5-12.4,12.4s5.5,12.4,12.4,12.4h63.3c0,0,2.7-0.3,3.1-0.4c0.1,0,78-21.6,78-21.6c2.1-0.6,3.9-1.7,5.4-3.2
			L401.7,85.9C418,69.6,418,43.1,401.7,26.8z M93.4,320.4l10.1-36.3l26.2,26.2L93.4,320.4z M153.5,299.1l-38.7-38.7L312.4,62.8
			l38.7,38.7L153.5,299.1z M384.2,68.4L368.6,84l-38.7-38.7l15.6-15.6c6.7-6.7,17.5-6.7,24.2,0l14.5,14.5
			C390.9,50.9,390.9,61.8,384.2,68.4z"/>
	</g>
</g>
</svg>
