<?xml version="1.0" encoding="utf-8"?>
<!-- Generator: Adobe Illustrator 23.0.1, SVG Export Plug-In . SVG Version: 6.00 Build 0)  -->
<svg version="1.1" id="Layer_1" xmlns="http://www.w3.org/2000/svg" xmlns:xlink="http://www.w3.org/1999/xlink"  width="98px" height="104px"
	 viewBox="0 0 106.3 112.8" style="enable-background:new 0 0 106.3 112.8;" xml:space="preserve">
<style type="text/css">
	.st0{fill:#0085EF;}
</style>
<g>
	<path class="st0" d="M17.4,112.8l-2.1-22.5C5.4,80.3,0,67.2,0,53.2C0,23.9,23.9,0,53.2,0h0c29.3,0,53.2,23.9,53.2,53.2
		s-23.9,53.2-53.2,53.2c-4.9,0-9.7-0.7-14.4-2L17.4,112.8z M53.2,6C27.2,6,6,27.2,6,53.2c0,12.7,5.1,24.7,14.3,33.7l0.8,0.8
		l1.6,16.7L38.5,98l1,0.3c4.4,1.3,9,2,13.6,2c26,0,47.2-21.2,47.2-47.2S79.2,6,53.2,6z"/>
</g>
<g>
	<path class="st0" d="M79.8,42.7l-11,14.7h6.4c-2,10.5-11.2,18.3-22.1,18.3c-7.5,0-14.4-3.7-18.6-9.9l-0.4-0.7h-9.4l1.1,2.2
		C31.1,77.6,41.6,84,53.2,84c15.6,0,28.5-11.4,30.5-26.6h7.1L79.8,42.7z"/>
	<path class="st0" d="M37.5,46.3h-5.8c2.9-9.3,11.5-15.6,21.4-15.6c6.5,0,12.7,2.8,16.9,7.7l0.5,0.5l9.8-0.4L79,36.3
		c-5.7-8.7-15.4-14-25.8-14c-14.4,0-26.9,10-30,24h-7.6l11,14.7L37.5,46.3z"/>
</g>
</svg>
