<?xml version="1.0" encoding="utf-8"?>
<!-- Generator: Adobe Illustrator 23.0.1, SVG Export Plug-In . SVG Version: 6.00 Build 0)  -->
<svg width="150px" height="29px" viewBox="0 0 301.9 58.9" version="1.1" xmlns="http://www.w3.org/2000/svg" xmlns:xlink="http://www.w3.org/1999/xlink">
<style type="text/css">
	.st0{fill:#0085EF;}
	.st1{fill:#FFFFFF;}
	.st2{fill:#092C4C;}
</style>
<g>
	<path class="st0" d="M28,0L28,0C12.6,0,0,12.6,0,28v0c0,7.8,3.3,14.9,8.5,20l1,10.9l10.4-4.1c2.6,0.8,5.3,1.2,8.1,1.2h0
		c15.4,0,28-12.6,28-28v0C56,12.6,43.4,0,28,0z"/>
	<g>
		<path class="st1" d="M42.9,22.2l-6.1,8.2h3.6c-1.1,5.9-6.2,10.2-12.3,10.2c-4.2,0-8.1-2.1-10.4-5.5l-0.2-0.4h-5.3l0.6,1.2
			c3,5.8,8.8,9.3,15.3,9.3c8.7,0,15.9-6.3,17-14.9h4L42.9,22.2z"/>
		<path class="st1" d="M19.3,24.2h-3.2c1.6-5.2,6.4-8.7,12-8.7c3.6,0,7.1,1.6,9.5,4.3l0.3,0.3l5.5-0.2l-0.8-1.2
			c-3.2-4.9-8.6-7.8-14.4-7.8c-8.1,0-15,5.6-16.8,13.4H7l6.1,8.2L19.3,24.2z"/>
	</g>
	<g>
		<path class="st2" d="M89.8,23c1.7-1.2,3.4-2.3,5.1-3.5c-3.3-5.3-10.5-7.8-16.8-5.8c-6.2,2-10.9,7.9-10.3,15.5
			c0.5,6.6,5.3,12.2,12.1,13.5c6.3,1.2,12.5-2.1,14.9-6.3c-1.7-1.2-3.4-2.4-5.1-3.6c-1.5,2.2-3.5,3.6-6.1,3.8
			c-2.6,0.2-4.9-0.5-6.7-2.4c-3.4-3.4-3.3-9.3,0.1-12.7C79.9,18.7,86.3,17.8,89.8,23z"/>
		<path class="st2" d="M175.5,22.7c-4.7,1.4-7.6,5.1-7.5,10.1c0,4.7,2.7,8.4,7.2,9.7c3.4,1,6.7,0.6,9.8-1.1c0.8-0.4,1.6-1.1,2.4-1.7
			c-1.2-1.5-2.2-2.8-3.3-4.1c-0.2,0.2-0.4,0.3-0.5,0.4c-2,1.4-4.2,1.9-6.6,1.1c-1.2-0.4-2.1-1.2-2.5-2.6c4.9,0,9.6,0,14.4,0
			c0.3-2.3,0.2-4.5-0.8-6.6C186,23.4,180.6,21.2,175.5,22.7z M182.7,30.8c-0.2,0-0.4,0.1-0.6,0.1c-2.5,0-5,0-7.5,0
			c0.1-2.1,2.1-3.4,4.7-3.2C181.4,27.8,182.8,29.1,182.7,30.8z"/>
		<path class="st2" d="M237.6,22.7c-4.3,1.1-6.9,3.9-7.6,8.3c-0.8,4.8,1.6,9.4,6.1,11.1c2.8,1.1,5.7,1.1,8.6,0.2
			c1.7-0.5,3.3-1.3,4.5-2.7c-1.1-1.4-2.1-2.7-3.1-4c-0.1,0-0.1,0-0.2,0c-0.2,0.1-0.3,0.3-0.5,0.4c-2.2,1.5-4.6,2-7.1,0.8
			c-1-0.5-1.6-1.2-2-2.4c4.9,0,9.6,0,14.5,0c0.1-0.7,0.1-1.3,0.1-1.9c0-2.4-0.5-4.7-2.1-6.5C245.8,22.6,241.9,21.6,237.6,22.7z
			 M236.5,30.8c0.1-1.9,2-3.3,4.3-3.2c2.3,0.1,3.8,1.3,3.8,3.2C241.9,30.8,239.2,30.8,236.5,30.8z"/>
		<path class="st2" d="M295.7,22.8c-0.3,0-0.6,0.3-0.7,0.6c-0.6,1.4-1.1,2.9-1.7,4.3c-0.7,1.7-1.4,3.4-2.1,5.3
			c-0.2-0.4-0.3-0.6-0.3-0.8c-1.2-2.9-2.3-5.8-3.5-8.7c-0.1-0.3-0.4-0.7-0.6-0.7c-1.9,0-3.7,0-5.7,0c-2,0-4,0-6.1,0
			c-0.1-1.2,0-2.3,0.7-3.2c1.2-1.6,3-1.3,4.7-1.4c0-1.9,0-3.8,0-5.7c-1.4,0-2.7-0.1-4,0c-3.5,0.2-6.2,2.4-7.1,5.8
			c-0.4,1.4-0.5,3-0.7,4.6c-1.1,0-2.3,0-3.5,0c0,1.6,0,3.1,0,4.7c1.2,0,2.4,0,3.7,0c0,5.1,0,10.1,0,15c2.1,0,4.2,0,6.3,0
			c0-5,0-10,0-15c2.4,0,4.8,0,7.2,0c1.4,3.2,2.8,6.3,4.3,9.5c0.5,1.1,1.3,2.2,1.3,3.3c0,1.1-0.7,2.2-1.2,3.3
			c-1.2,2.9-2.3,5.8-3.6,8.8c2.1,0,4,0,5.9,0c0.6,0,0.9-0.2,1.1-0.7c3.9-9.4,7.8-18.8,11.6-28.2c0.1-0.2,0.1-0.4,0.2-0.7
			C299.8,22.8,297.7,22.7,295.7,22.8z"/>
		<path class="st2" d="M106.2,22.4c-6.2,0.7-10.4,6.7-8.8,12.8c1.2,4.7,5.3,7.8,10.4,7.8c0.7-0.1,1.5-0.1,2.2-0.2
			c7.4-1.2,11.1-9.8,6.8-15.9C114.3,23.2,110.6,21.9,106.2,22.4z M107.7,37.1c-2.4-0.1-4.3-2.1-4.2-4.6c0.1-2.6,2-4.5,4.5-4.5
			c2.6,0.1,4.4,2.1,4.3,4.8C112.1,35.4,110.2,37.2,107.7,37.1z"/>
		<path class="st2" d="M142,28c-1.1-4.6-4.9-6.3-8.6-5.6c-1.9,0.4-3.5,1.4-4.5,3.2c0-0.9,0-1.9,0-2.8c-2.1,0-4.2,0-6.2,0
			c0,6.6,0,13.2,0,19.7c2.1,0,4.1,0,6.2,0c0-0.4,0-0.7,0-1c0-3.2,0-6.4,0-9.6c0-1.9,1.4-3.3,3.2-3.4c2-0.2,3.4,0.8,3.8,2.8
			c0.1,0.7,0.2,1.4,0.2,2.1c0,3,0,6,0,9.1c2.2,0,4.2,0,6.3,0c0-0.2,0-0.4,0-0.6c0-3.3,0-6.6,0-9.8C142.5,30.7,142.3,29.3,142,28z"/>
		<path class="st2" d="M224.4,32.1c-1.1-0.7-2.4-1.1-3.7-1.6c-1.1-0.4-2.3-0.6-3.4-1c-0.4-0.2-0.9-0.8-0.9-1.2
			c-0.1-0.7,0.6-1,1.2-1.1c1.5-0.4,2.5,0.2,3,1.8c1.9,0,3.8,0,5.7,0c0.2-1.8-0.6-3.7-2.2-4.9c-3.1-2.4-8.5-2.4-11.7,0
			c-3.3,2.5-3.2,7.1,0.4,9.3c0.8,0.5,1.6,0.8,2.5,1.1c1.4,0.5,2.8,0.8,4.2,1.2c0.5,0.1,1.1,0.3,1.1,1c0,0.7-0.5,1.1-1,1.3
			c-1.8,0.7-3.2,0-4-1.9c-1.9,0-3.8,0-5.8,0c0,1.6,0.5,3,1.6,4.2c3.2,3.4,10.4,3.7,13.8,0.4C227.7,38.2,227.4,34.1,224.4,32.1z"/>
		<path class="st2" d="M160.8,22.7c-0.6,0-0.9,0.2-1.1,0.8c-1.2,3.4-2.4,6.7-3.7,10.1c-0.1,0.2-0.2,0.5-0.4,0.9
			c-0.2-0.4-0.3-0.7-0.3-0.9c-1.2-3.4-2.5-6.7-3.7-10.1c-0.1-0.3-0.4-0.7-0.6-0.7c-2.1-0.1-4.2,0-6.4,0c0.1,0.2,0.1,0.4,0.2,0.6
			c2.7,6.2,5.3,12.5,8,18.7c0.1,0.2,0.5,0.5,0.8,0.5c1.4,0.1,2.7,0,4.1,0c0.6,0,0.9-0.2,1.2-0.8c2.6-6.1,5.1-12.1,7.7-18.2
			c0.1-0.2,0.2-0.5,0.3-0.9C164.8,22.8,162.8,22.8,160.8,22.7z"/>
		<path class="st2" d="M199.3,26.4c0-1.2,0-2.4,0-3.6c-2.1,0-4,0-6.1,0c0,6.6,0,13.1,0,19.7c2.1,0,4.1,0,6.2,0c0-0.4,0-0.7,0-1
			c0-2.4-0.1-4.8,0.1-7.1c0.1-1.4,0.5-2.9,1-4.2c0.7-1.6,2.1-2.3,3.8-2.1c0.8,0.1,1.6,0.4,2.4,0.6c0.5-1.8,0.9-3.8,1.5-5.9
			C204.2,21.5,201.3,22.7,199.3,26.4z"/>
		<path class="st2" d="M255.1,42.5c2.1,0,4.1,0,6.2,0c0-6.6,0-13.2,0-19.7c-2.1,0-4.1,0-6.2,0C255.1,29.4,255.1,36,255.1,42.5z"/>
		<path class="st2" d="M258.2,12.4c-2.1,0-3.9,1.6-3.9,3.6c0,2,1.7,3.6,3.9,3.7c2.1,0,3.8-1.6,3.9-3.6
			C262.1,14.2,260.3,12.5,258.2,12.4z"/>
	</g>
</g>
</svg>
