<?xml version="1.0" encoding="utf-8"?>
<!-- Generator: Adobe Illustrator 23.0.1, SVG Export Plug-In . SVG Version: 6.00 Build 0)  -->
<svg version="1.1" id="Layer_1" xmlns="http://www.w3.org/2000/svg" xmlns:xlink="http://www.w3.org/1999/xlink" x="0px" y="0px"
	 viewBox="0 0 512 455" style="enable-background:new 0 0 512 455;" xml:space="preserve">
<g>
	<g>
		<path d="M386.9,184.8L277.7,87.3c-12.4-11.1-31-11.1-43.4,0l-109.2,97.5c-5.4,4.8-5.8,13-1,18.4c4.8,5.4,13,5.8,18.4,1L243,114.5
			v252.6c0,7.2,5.8,13,13,13c7.2,0,13-5.8,13-13V114.5l100.5,89.8c2.5,2.2,5.6,3.3,8.7,3.3c3.6,0,7.1-1.5,9.7-4.4
			C392.7,197.9,392.2,189.6,386.9,184.8z"/>
	</g>
</g>
</svg>
